<mxfile host="app.diagrams.net" agent="Mozilla/5.0 (Windows NT 10.0; Win64; x64) AppleWebKit/537.36 (KHTML, like Gecko) Chrome/136.0.0.0 Safari/537.36" version="27.0.5">
  <diagram name="Page-1" id="WfgfcDRpUvf3GJPc9tH4">
    <mxGraphModel dx="786" dy="417" grid="0" gridSize="10" guides="1" tooltips="1" connect="1" arrows="1" fold="1" page="1" pageScale="1" pageWidth="850" pageHeight="1100" math="0" shadow="0">
      <root>
        <mxCell id="0" />
        <mxCell id="1" parent="0" />
        <mxCell id="7Jk_tbHKWYDqEpPMg2VC-66" value="" style="rounded=1;whiteSpace=wrap;html=1;fillColor=#99CCFF;strokeColor=#99CCFF;glass=0;fillStyle=cross-hatch;gradientColor=none;strokeWidth=1;opacity=60;sketch=1;curveFitting=1;jiggle=2;" parent="1" vertex="1">
          <mxGeometry x="180" y="140" width="380" height="553" as="geometry" />
        </mxCell>
        <mxCell id="7Jk_tbHKWYDqEpPMg2VC-5" value="User&lt;div&gt;&lt;br&gt;&lt;/div&gt;" style="shape=umlActor;verticalLabelPosition=bottom;verticalAlign=top;html=1;outlineConnect=0;fillColor=#f8cecc;strokeColor=#b85450;" parent="1" vertex="1">
          <mxGeometry x="74" y="380" width="30" height="60" as="geometry" />
        </mxCell>
        <mxCell id="7Jk_tbHKWYDqEpPMg2VC-15" value="System" style="shape=umlActor;verticalLabelPosition=bottom;verticalAlign=top;html=1;outlineConnect=0;fillColor=#dae8fc;strokeColor=#6c8ebf;" parent="1" vertex="1">
          <mxGeometry x="668" y="200" width="30" height="60" as="geometry" />
        </mxCell>
        <mxCell id="7Jk_tbHKWYDqEpPMg2VC-16" value="&lt;div&gt;Geolocation API&lt;/div&gt;" style="shape=umlActor;verticalLabelPosition=bottom;verticalAlign=top;html=1;outlineConnect=0;fillColor=#d5e8d4;strokeColor=#82b366;" parent="1" vertex="1">
          <mxGeometry x="650" y="430" width="30" height="60" as="geometry" />
        </mxCell>
        <mxCell id="7Jk_tbHKWYDqEpPMg2VC-19" value="Log In" style="ellipse;whiteSpace=wrap;html=1;fillColor=#f8cecc;strokeColor=#b85450;" parent="1" vertex="1">
          <mxGeometry x="210" y="160" width="140" height="40" as="geometry" />
        </mxCell>
        <mxCell id="7Jk_tbHKWYDqEpPMg2VC-23" style="edgeStyle=orthogonalEdgeStyle;rounded=0;orthogonalLoop=1;jettySize=auto;html=1;exitX=0.5;exitY=0;exitDx=0;exitDy=0;entryX=0.5;entryY=1;entryDx=0;entryDy=0;dashed=1;" parent="1" source="7Jk_tbHKWYDqEpPMg2VC-20" target="7Jk_tbHKWYDqEpPMg2VC-19" edge="1">
          <mxGeometry relative="1" as="geometry" />
        </mxCell>
        <mxCell id="7Jk_tbHKWYDqEpPMg2VC-20" value="Register" style="ellipse;whiteSpace=wrap;html=1;fillColor=#f8cecc;strokeColor=#b85450;" parent="1" vertex="1">
          <mxGeometry x="210" y="230" width="140" height="40" as="geometry" />
        </mxCell>
        <mxCell id="7Jk_tbHKWYDqEpPMg2VC-21" value="Create journal" style="ellipse;whiteSpace=wrap;html=1;fillColor=#f8cecc;strokeColor=#b85450;" parent="1" vertex="1">
          <mxGeometry x="210" y="280" width="140" height="40" as="geometry" />
        </mxCell>
        <mxCell id="7Jk_tbHKWYDqEpPMg2VC-22" value="Add entry" style="ellipse;whiteSpace=wrap;html=1;fillColor=#f8cecc;strokeColor=#b85450;" parent="1" vertex="1">
          <mxGeometry x="210" y="330" width="140" height="40" as="geometry" />
        </mxCell>
        <mxCell id="7Jk_tbHKWYDqEpPMg2VC-24" value="include" style="text;html=1;align=center;verticalAlign=middle;whiteSpace=wrap;rounded=0;" parent="1" vertex="1">
          <mxGeometry x="280" y="200" width="60" height="30" as="geometry" />
        </mxCell>
        <mxCell id="7Jk_tbHKWYDqEpPMg2VC-27" value="" style="endArrow=classic;html=1;rounded=0;exitX=1;exitY=0.3333333333333333;exitDx=0;exitDy=0;exitPerimeter=0;entryX=0;entryY=0.5;entryDx=0;entryDy=0;" parent="1" source="7Jk_tbHKWYDqEpPMg2VC-5" target="7Jk_tbHKWYDqEpPMg2VC-19" edge="1">
          <mxGeometry width="50" height="50" relative="1" as="geometry">
            <mxPoint x="380" y="340" as="sourcePoint" />
            <mxPoint x="430" y="290" as="targetPoint" />
          </mxGeometry>
        </mxCell>
        <mxCell id="7Jk_tbHKWYDqEpPMg2VC-28" value="" style="endArrow=classic;html=1;rounded=0;entryX=0;entryY=0.5;entryDx=0;entryDy=0;exitX=1;exitY=0.3333333333333333;exitDx=0;exitDy=0;exitPerimeter=0;" parent="1" target="7Jk_tbHKWYDqEpPMg2VC-20" edge="1" source="7Jk_tbHKWYDqEpPMg2VC-5">
          <mxGeometry width="50" height="50" relative="1" as="geometry">
            <mxPoint x="160" y="300" as="sourcePoint" />
            <mxPoint x="430" y="290" as="targetPoint" />
          </mxGeometry>
        </mxCell>
        <mxCell id="7Jk_tbHKWYDqEpPMg2VC-29" value="" style="endArrow=classic;html=1;rounded=0;entryX=0;entryY=0.5;entryDx=0;entryDy=0;exitX=1;exitY=0.3333333333333333;exitDx=0;exitDy=0;exitPerimeter=0;" parent="1" target="7Jk_tbHKWYDqEpPMg2VC-21" edge="1" source="7Jk_tbHKWYDqEpPMg2VC-5">
          <mxGeometry width="50" height="50" relative="1" as="geometry">
            <mxPoint x="160" y="300" as="sourcePoint" />
            <mxPoint x="430" y="290" as="targetPoint" />
          </mxGeometry>
        </mxCell>
        <mxCell id="7Jk_tbHKWYDqEpPMg2VC-30" value="" style="endArrow=classic;html=1;rounded=0;exitX=1;exitY=0.3333333333333333;exitDx=0;exitDy=0;exitPerimeter=0;entryX=0;entryY=0.5;entryDx=0;entryDy=0;" parent="1" source="7Jk_tbHKWYDqEpPMg2VC-5" target="RWoTUzs4CLQieKRzUvtS-1" edge="1">
          <mxGeometry width="50" height="50" relative="1" as="geometry">
            <mxPoint x="380" y="340" as="sourcePoint" />
            <mxPoint x="430" y="290" as="targetPoint" />
          </mxGeometry>
        </mxCell>
        <mxCell id="7Jk_tbHKWYDqEpPMg2VC-31" value="Upload Media" style="ellipse;whiteSpace=wrap;html=1;fillColor=#fff2cc;strokeColor=#d6b656;" parent="1" vertex="1">
          <mxGeometry x="400" y="280" width="140" height="40" as="geometry" />
        </mxCell>
        <mxCell id="7Jk_tbHKWYDqEpPMg2VC-33" value="" style="endArrow=classic;html=1;rounded=0;exitX=1;exitY=0.5;exitDx=0;exitDy=0;entryX=0;entryY=0.5;entryDx=0;entryDy=0;dashed=1;" parent="1" source="7Jk_tbHKWYDqEpPMg2VC-21" target="7Jk_tbHKWYDqEpPMg2VC-31" edge="1">
          <mxGeometry width="50" height="50" relative="1" as="geometry">
            <mxPoint x="380" y="340" as="sourcePoint" />
            <mxPoint x="430" y="290" as="targetPoint" />
          </mxGeometry>
        </mxCell>
        <mxCell id="7Jk_tbHKWYDqEpPMg2VC-34" value="" style="endArrow=classic;html=1;rounded=0;exitX=1;exitY=0.5;exitDx=0;exitDy=0;dashed=1;entryX=0;entryY=0.5;entryDx=0;entryDy=0;" parent="1" source="7Jk_tbHKWYDqEpPMg2VC-22" target="7Jk_tbHKWYDqEpPMg2VC-31" edge="1">
          <mxGeometry width="50" height="50" relative="1" as="geometry">
            <mxPoint x="380" y="340" as="sourcePoint" />
            <mxPoint x="390" y="361.42857142857144" as="targetPoint" />
          </mxGeometry>
        </mxCell>
        <mxCell id="7Jk_tbHKWYDqEpPMg2VC-35" value="include" style="text;html=1;align=center;verticalAlign=middle;whiteSpace=wrap;rounded=0;" parent="1" vertex="1">
          <mxGeometry x="326" y="313" width="50" height="20" as="geometry" />
        </mxCell>
        <mxCell id="7Jk_tbHKWYDqEpPMg2VC-38" value="View journal" style="ellipse;whiteSpace=wrap;html=1;fillColor=#f8cecc;strokeColor=#b85450;" parent="1" vertex="1">
          <mxGeometry x="210" y="380" width="140" height="40" as="geometry" />
        </mxCell>
        <mxCell id="7Jk_tbHKWYDqEpPMg2VC-39" value="View entries" style="ellipse;whiteSpace=wrap;html=1;fillColor=#fff2cc;strokeColor=#d6b656;" parent="1" vertex="1">
          <mxGeometry x="400" y="380" width="140" height="40" as="geometry" />
        </mxCell>
        <mxCell id="7Jk_tbHKWYDqEpPMg2VC-40" value="" style="endArrow=classic;html=1;rounded=0;exitX=1;exitY=0.5;exitDx=0;exitDy=0;entryX=0;entryY=0.5;entryDx=0;entryDy=0;dashed=1;" parent="1" source="7Jk_tbHKWYDqEpPMg2VC-38" target="7Jk_tbHKWYDqEpPMg2VC-39" edge="1">
          <mxGeometry width="50" height="50" relative="1" as="geometry">
            <mxPoint x="380" y="340" as="sourcePoint" />
            <mxPoint x="430" y="290" as="targetPoint" />
          </mxGeometry>
        </mxCell>
        <mxCell id="7Jk_tbHKWYDqEpPMg2VC-41" value="include" style="text;html=1;align=center;verticalAlign=middle;whiteSpace=wrap;rounded=0;" parent="1" vertex="1">
          <mxGeometry x="340" y="370" width="60" height="30" as="geometry" />
        </mxCell>
        <mxCell id="7Jk_tbHKWYDqEpPMg2VC-43" value="Pin location on map" style="ellipse;whiteSpace=wrap;html=1;fillColor=#d5e8d4;strokeColor=#82b366;" parent="1" vertex="1">
          <mxGeometry x="400" y="330" width="140" height="40" as="geometry" />
        </mxCell>
        <mxCell id="7Jk_tbHKWYDqEpPMg2VC-44" value="include" style="text;html=1;align=center;verticalAlign=middle;whiteSpace=wrap;rounded=0;" parent="1" vertex="1">
          <mxGeometry x="340" y="270" width="60" height="30" as="geometry" />
        </mxCell>
        <mxCell id="7Jk_tbHKWYDqEpPMg2VC-48" value="View travel map" style="ellipse;whiteSpace=wrap;html=1;fillColor=#d5e8d4;strokeColor=#82b366;" parent="1" vertex="1">
          <mxGeometry x="210" y="430" width="140" height="40" as="geometry" />
        </mxCell>
        <mxCell id="7Jk_tbHKWYDqEpPMg2VC-49" value="" style="endArrow=classic;html=1;rounded=0;entryX=0;entryY=0.5;entryDx=0;entryDy=0;exitX=1;exitY=0.3333333333333333;exitDx=0;exitDy=0;exitPerimeter=0;" parent="1" target="7Jk_tbHKWYDqEpPMg2VC-48" edge="1" source="7Jk_tbHKWYDqEpPMg2VC-5">
          <mxGeometry width="50" height="50" relative="1" as="geometry">
            <mxPoint x="160" y="300" as="sourcePoint" />
            <mxPoint x="430" y="370" as="targetPoint" />
          </mxGeometry>
        </mxCell>
        <mxCell id="7Jk_tbHKWYDqEpPMg2VC-51" value="" style="endArrow=classic;html=1;rounded=0;exitX=0;exitY=0.3333333333333333;exitDx=0;exitDy=0;exitPerimeter=0;entryX=1;entryY=0.5;entryDx=0;entryDy=0;" parent="1" source="7Jk_tbHKWYDqEpPMg2VC-16" target="7Jk_tbHKWYDqEpPMg2VC-48" edge="1">
          <mxGeometry width="50" height="50" relative="1" as="geometry">
            <mxPoint x="380" y="420" as="sourcePoint" />
            <mxPoint x="430" y="370" as="targetPoint" />
          </mxGeometry>
        </mxCell>
        <mxCell id="7Jk_tbHKWYDqEpPMg2VC-52" value="" style="endArrow=classic;html=1;rounded=0;entryX=1;entryY=0.5;entryDx=0;entryDy=0;" parent="1" target="7Jk_tbHKWYDqEpPMg2VC-43" edge="1">
          <mxGeometry width="50" height="50" relative="1" as="geometry">
            <mxPoint x="650" y="450" as="sourcePoint" />
            <mxPoint x="430" y="370" as="targetPoint" />
          </mxGeometry>
        </mxCell>
        <mxCell id="7Jk_tbHKWYDqEpPMg2VC-55" value="Send postcard" style="ellipse;whiteSpace=wrap;html=1;fillColor=#f8cecc;strokeColor=#b85450;" parent="1" vertex="1">
          <mxGeometry x="210" y="480" width="140" height="40" as="geometry" />
        </mxCell>
        <mxCell id="7Jk_tbHKWYDqEpPMg2VC-56" value="" style="endArrow=classic;html=1;rounded=0;entryX=0;entryY=0.5;entryDx=0;entryDy=0;exitX=1;exitY=0.3333333333333333;exitDx=0;exitDy=0;exitPerimeter=0;" parent="1" target="7Jk_tbHKWYDqEpPMg2VC-55" edge="1" source="7Jk_tbHKWYDqEpPMg2VC-5">
          <mxGeometry width="50" height="50" relative="1" as="geometry">
            <mxPoint x="160" y="300" as="sourcePoint" />
            <mxPoint x="430" y="370" as="targetPoint" />
          </mxGeometry>
        </mxCell>
        <mxCell id="7Jk_tbHKWYDqEpPMg2VC-57" value="" style="endArrow=classic;html=1;rounded=0;exitX=1;exitY=0.5;exitDx=0;exitDy=0;entryX=0.5;entryY=1;entryDx=0;entryDy=0;dashed=1;" parent="1" source="7Jk_tbHKWYDqEpPMg2VC-55" target="7Jk_tbHKWYDqEpPMg2VC-39" edge="1">
          <mxGeometry width="50" height="50" relative="1" as="geometry">
            <mxPoint x="380" y="420" as="sourcePoint" />
            <mxPoint x="430" y="370" as="targetPoint" />
            <Array as="points">
              <mxPoint x="470" y="500" />
            </Array>
          </mxGeometry>
        </mxCell>
        <mxCell id="7Jk_tbHKWYDqEpPMg2VC-62" value="" style="endArrow=classic;html=1;rounded=0;exitX=1;exitY=0.3333333333333333;exitDx=0;exitDy=0;exitPerimeter=0;entryX=1;entryY=0.3333333333333333;entryDx=0;entryDy=0;entryPerimeter=0;" parent="1" source="7Jk_tbHKWYDqEpPMg2VC-15" target="7Jk_tbHKWYDqEpPMg2VC-16" edge="1">
          <mxGeometry width="50" height="50" relative="1" as="geometry">
            <mxPoint x="381" y="372" as="sourcePoint" />
            <mxPoint x="757" y="442" as="targetPoint" />
            <Array as="points">
              <mxPoint x="720" y="220" />
              <mxPoint x="720" y="450" />
            </Array>
          </mxGeometry>
        </mxCell>
        <mxCell id="7Jk_tbHKWYDqEpPMg2VC-63" value="use" style="text;html=1;align=center;verticalAlign=middle;whiteSpace=wrap;rounded=0;" parent="1" vertex="1">
          <mxGeometry x="710" y="325" width="60" height="30" as="geometry" />
        </mxCell>
        <mxCell id="7Jk_tbHKWYDqEpPMg2VC-67" value="" style="endArrow=classic;html=1;rounded=0;exitX=0;exitY=0.3333333333333333;exitDx=0;exitDy=0;exitPerimeter=0;" parent="1" source="7Jk_tbHKWYDqEpPMg2VC-15" edge="1">
          <mxGeometry width="50" height="50" relative="1" as="geometry">
            <mxPoint x="380" y="370" as="sourcePoint" />
            <mxPoint x="560" y="284" as="targetPoint" />
          </mxGeometry>
        </mxCell>
        <mxCell id="RWoTUzs4CLQieKRzUvtS-1" value="Explore" style="ellipse;whiteSpace=wrap;html=1;fillColor=#f8cecc;strokeColor=#b85450;" vertex="1" parent="1">
          <mxGeometry x="213" y="530" width="140" height="40" as="geometry" />
        </mxCell>
        <mxCell id="RWoTUzs4CLQieKRzUvtS-4" value="" style="endArrow=classic;html=1;rounded=0;entryX=0;entryY=0.5;entryDx=0;entryDy=0;exitX=1;exitY=0.3333333333333333;exitDx=0;exitDy=0;exitPerimeter=0;" edge="1" parent="1" source="7Jk_tbHKWYDqEpPMg2VC-5" target="7Jk_tbHKWYDqEpPMg2VC-22">
          <mxGeometry width="50" height="50" relative="1" as="geometry">
            <mxPoint x="161" y="301" as="sourcePoint" />
            <mxPoint x="125" y="376" as="targetPoint" />
          </mxGeometry>
        </mxCell>
        <mxCell id="RWoTUzs4CLQieKRzUvtS-5" value="" style="endArrow=classic;html=1;rounded=0;entryX=0;entryY=0.5;entryDx=0;entryDy=0;exitX=1;exitY=0.3333333333333333;exitDx=0;exitDy=0;exitPerimeter=0;" edge="1" parent="1" source="7Jk_tbHKWYDqEpPMg2VC-5" target="7Jk_tbHKWYDqEpPMg2VC-38">
          <mxGeometry width="50" height="50" relative="1" as="geometry">
            <mxPoint x="180" y="320" as="sourcePoint" />
            <mxPoint x="230" y="270" as="targetPoint" />
          </mxGeometry>
        </mxCell>
        <mxCell id="RWoTUzs4CLQieKRzUvtS-7" value="View journals" style="ellipse;whiteSpace=wrap;html=1;fillColor=#fff2cc;strokeColor=#d6b656;" vertex="1" parent="1">
          <mxGeometry x="395" y="554" width="140" height="40" as="geometry" />
        </mxCell>
        <mxCell id="RWoTUzs4CLQieKRzUvtS-9" value="View users" style="ellipse;whiteSpace=wrap;html=1;fillColor=#fff2cc;strokeColor=#d6b656;" vertex="1" parent="1">
          <mxGeometry x="395" y="507" width="140" height="40" as="geometry" />
        </mxCell>
        <mxCell id="RWoTUzs4CLQieKRzUvtS-11" value="" style="endArrow=classic;html=1;rounded=0;exitX=1;exitY=0.5;exitDx=0;exitDy=0;entryX=0;entryY=0.5;entryDx=0;entryDy=0;dashed=1;" edge="1" parent="1" source="RWoTUzs4CLQieKRzUvtS-1" target="RWoTUzs4CLQieKRzUvtS-9">
          <mxGeometry width="50" height="50" relative="1" as="geometry">
            <mxPoint x="380" y="446" as="sourcePoint" />
            <mxPoint x="430" y="396" as="targetPoint" />
          </mxGeometry>
        </mxCell>
        <mxCell id="RWoTUzs4CLQieKRzUvtS-12" value="" style="endArrow=classic;html=1;rounded=0;exitX=1;exitY=0.5;exitDx=0;exitDy=0;entryX=0;entryY=0.5;entryDx=0;entryDy=0;dashed=1;" edge="1" parent="1" source="RWoTUzs4CLQieKRzUvtS-1" target="RWoTUzs4CLQieKRzUvtS-7">
          <mxGeometry width="50" height="50" relative="1" as="geometry">
            <mxPoint x="380" y="446" as="sourcePoint" />
            <mxPoint x="430" y="396" as="targetPoint" />
          </mxGeometry>
        </mxCell>
        <mxCell id="RWoTUzs4CLQieKRzUvtS-13" value="include" style="text;html=1;align=center;verticalAlign=middle;whiteSpace=wrap;rounded=0;" vertex="1" parent="1">
          <mxGeometry x="373" y="477" width="60" height="30" as="geometry" />
        </mxCell>
        <mxCell id="RWoTUzs4CLQieKRzUvtS-14" value="include" style="text;html=1;align=center;verticalAlign=middle;whiteSpace=wrap;rounded=0;" vertex="1" parent="1">
          <mxGeometry x="330" y="514" width="60" height="30" as="geometry" />
        </mxCell>
        <mxCell id="RWoTUzs4CLQieKRzUvtS-15" value="include" style="text;html=1;align=center;verticalAlign=middle;whiteSpace=wrap;rounded=0;" vertex="1" parent="1">
          <mxGeometry x="324" y="564" width="60" height="30" as="geometry" />
        </mxCell>
        <mxCell id="RWoTUzs4CLQieKRzUvtS-16" value="View profile" style="ellipse;whiteSpace=wrap;html=1;fillColor=#f8cecc;strokeColor=#b85450;" vertex="1" parent="1">
          <mxGeometry x="216" y="583" width="140" height="40" as="geometry" />
        </mxCell>
        <mxCell id="RWoTUzs4CLQieKRzUvtS-17" value="View notifications" style="ellipse;whiteSpace=wrap;html=1;fillColor=#f8cecc;strokeColor=#b85450;" vertex="1" parent="1">
          <mxGeometry x="216" y="633" width="140" height="40" as="geometry" />
        </mxCell>
        <mxCell id="RWoTUzs4CLQieKRzUvtS-18" value="" style="endArrow=classic;html=1;rounded=0;exitX=1;exitY=0.3333333333333333;exitDx=0;exitDy=0;exitPerimeter=0;entryX=0;entryY=0.5;entryDx=0;entryDy=0;" edge="1" parent="1" source="7Jk_tbHKWYDqEpPMg2VC-5" target="RWoTUzs4CLQieKRzUvtS-16">
          <mxGeometry width="50" height="50" relative="1" as="geometry">
            <mxPoint x="122" y="432" as="sourcePoint" />
            <mxPoint x="172" y="382" as="targetPoint" />
          </mxGeometry>
        </mxCell>
        <mxCell id="RWoTUzs4CLQieKRzUvtS-19" value="" style="endArrow=classic;html=1;rounded=0;entryX=0;entryY=0.5;entryDx=0;entryDy=0;exitX=1;exitY=0.3333333333333333;exitDx=0;exitDy=0;exitPerimeter=0;" edge="1" parent="1" source="7Jk_tbHKWYDqEpPMg2VC-5" target="RWoTUzs4CLQieKRzUvtS-17">
          <mxGeometry width="50" height="50" relative="1" as="geometry">
            <mxPoint x="159" y="307" as="sourcePoint" />
            <mxPoint x="161" y="414" as="targetPoint" />
          </mxGeometry>
        </mxCell>
        <mxCell id="RWoTUzs4CLQieKRzUvtS-21" value="" style="endArrow=classic;html=1;rounded=0;entryX=0;entryY=0.5;entryDx=0;entryDy=0;exitX=1;exitY=0.5;exitDx=0;exitDy=0;dashed=1;" edge="1" parent="1" source="7Jk_tbHKWYDqEpPMg2VC-22" target="7Jk_tbHKWYDqEpPMg2VC-43">
          <mxGeometry width="50" height="50" relative="1" as="geometry">
            <mxPoint x="354" y="357" as="sourcePoint" />
            <mxPoint x="404" y="307" as="targetPoint" />
          </mxGeometry>
        </mxCell>
        <mxCell id="RWoTUzs4CLQieKRzUvtS-22" value="include" style="text;html=1;align=center;verticalAlign=middle;whiteSpace=wrap;rounded=0;" vertex="1" parent="1">
          <mxGeometry x="359" y="330" width="50" height="20" as="geometry" />
        </mxCell>
        <mxCell id="RWoTUzs4CLQieKRzUvtS-23" value="View postcards" style="ellipse;whiteSpace=wrap;html=1;fillColor=#fff2cc;strokeColor=#d6b656;" vertex="1" parent="1">
          <mxGeometry x="395" y="633" width="140" height="40" as="geometry" />
        </mxCell>
        <mxCell id="RWoTUzs4CLQieKRzUvtS-24" value="" style="endArrow=classic;html=1;rounded=0;entryX=0;entryY=0.5;entryDx=0;entryDy=0;exitX=1;exitY=0.5;exitDx=0;exitDy=0;dashed=1;" edge="1" parent="1" source="RWoTUzs4CLQieKRzUvtS-17" target="RWoTUzs4CLQieKRzUvtS-23">
          <mxGeometry width="50" height="50" relative="1" as="geometry">
            <mxPoint x="380" y="546" as="sourcePoint" />
            <mxPoint x="430" y="496" as="targetPoint" />
          </mxGeometry>
        </mxCell>
        <mxCell id="RWoTUzs4CLQieKRzUvtS-25" value="include" style="text;html=1;align=center;verticalAlign=middle;whiteSpace=wrap;rounded=0;" vertex="1" parent="1">
          <mxGeometry x="342" y="626" width="60" height="30" as="geometry" />
        </mxCell>
      </root>
    </mxGraphModel>
  </diagram>
</mxfile>
